<svg id="Layer_1" data-name="Layer 1" xmlns="http://www.w3.org/2000/svg" viewBox="0 0 24 24"><defs><style>.cls-1{fill:none;}.cls-2{fill-rule:evenodd;}</style></defs><title>projects</title><path class="cls-1" d="M0,0H24V24H0Z"/><path class="cls-2" d="M12,21.49c-.4,0-1-.66-1.56-2.11-.54.27-1,.49-1.46.68.71,1.85,1.72,3.05,3,3.05s2.36-1.27,3.08-3.2c-.45-.18-.93-.39-1.47-.66C13.06,20.79,12.41,21.49,12,21.49Zm-4.36-2c-2.87,1-5.83,1.08-5.83-1.53a6.74,6.74,0,0,1,1.67-3.78,22.06,22.06,0,0,1,1.79-2.08,34.75,34.75,0,0,1,5.1-4.26A23.8,23.8,0,0,0,7.21,6.32a8.71,8.71,0,0,0-2.8-.62c-.47,0-.82.09-.93.26s-.13.73.41,1.71h.2a1.79,1.79,0,1,1-1.53.91,4.83,4.83,0,0,1-.75-2.32c0-1.4,1.07-2.18,2.6-2.18,2.33,0,5.47,1.54,7.49,2.73,2-1.27,5.29-2.93,7.69-2.93,1.75,0,2.6,1,2.6,2.22a6.74,6.74,0,0,1-1.67,3.78A32.47,32.47,0,0,1,7.64,19.44Zm13.81-4a1.8,1.8,0,0,0,.2-.84A1.76,1.76,0,1,0,19.9,16.4h.24c.51.94.5,1.47.38,1.65s-.46.27-.93.27a13,13,0,0,1-4.88-1.54c-.45.32-1,.69-1.54,1,1.78,1,4.41,2.12,6.42,2.12,1.51,0,2.6-.77,2.6-2.18A4.81,4.81,0,0,0,21.45,15.45Zm-11.88.11h0a35.69,35.69,0,0,1-3.07-2.44c-2.61,2.67-3.34,4.6-3,5.12a1.15,1.15,0,0,0,.92.28c2.18,0,5.63-1.87,7.68-3.21a29.65,29.65,0,0,0,7.16-6.42C20.64,7,20.69,6,20.51,5.77s-.45-.27-.92-.27c-1.81,0-4.56,1.35-6.15,2.26a38.85,38.85,0,0,1,3.26,2.42c-.38.39-.77.76-1.17,1.13A35.22,35.22,0,0,0,11.91,8.7,35.1,35.1,0,0,0,7.65,12a33.54,33.54,0,0,0,3.45,2.66C10.61,15,10.12,15.25,9.57,15.56ZM12,10.15A1.85,1.85,0,1,1,10.15,12,1.85,1.85,0,0,1,12,10.15Zm-1.61-5.4c-.54-.26-1-.48-1.47-.66C9.64,2.16,10.67.89,12,.89s2.31,1.2,3,3.05c-.46.19-.92.41-1.46.68C13,3.17,12.4,2.51,12,2.51S10.94,3.21,10.39,4.75Z"/></svg>